# xmcd CD database file
#
# Track frame offsets:
#	187
#	19687
#	51825
#
# Disc length: 947 seconds
#
# Revision: 0
# Processed by: cddbd v1.5PL3 Copyright (c) Steve Scherf et al.
# Submitted via: CDex 1.50
#
DISCID=1c03b103
DTITLE=NITRO - CALLING
DYEAR=1999
DGENRE=Anime
TTITLE0=CALLING
TTITLE1=CALLING (GTS GROOVE THAT SOUL MIX)
TTITLE2=CALLING (INSTRUMENTAL VERSION)
EXTD=YEAR: 1999
EXTT0=
EXTT1=
EXTT2=
PLAYORDER=
